<svg width="528" height="69" viewBox="0 0 528 69" fill="none" xmlns="http://www.w3.org/2000/svg">
<path d="M14.622 23.9239C14.622 26.6854 16.8606 28.9239 19.622 28.9239H22.5743C28.3889 28.9239 30.8686 26.0166 30.8686 21.3992C30.8686 16.7817 28.3889 13.8744 22.5743 13.8744H19.622C16.8606 13.8744 14.622 16.113 14.622 18.8744V23.9239ZM45.7471 21.3992C45.7471 31.3182 38.9919 40.5531 23.6859 40.5531H19.622C16.8606 40.5531 14.622 42.7917 14.622 45.5531V57.1013C14.622 59.8627 12.3834 62.1013 9.62198 62.1013H5C2.23858 62.1013 0 59.8627 0 57.1013V7.07422C0 4.31279 2.23858 2.07422 5 2.07422H23.6859C38.3934 2.07422 45.7471 10.3686 45.7471 21.3992Z" fill="url(#paint0_linear_30_24)"/>
<path d="M85.0831 21.5702C85.0831 17.1237 82.5178 14.2164 77.0453 14.2164H72.9814C70.22 14.2164 67.9814 16.455 67.9814 19.2164V24.095C67.9814 26.8564 70.22 29.095 72.9814 29.095H77.0453C82.5178 29.095 85.0831 26.2732 85.0831 21.5702ZM53.3594 7.07422C53.3594 4.31279 55.598 2.07422 58.3594 2.07422H77.9004C92.6079 2.07422 99.9616 10.5396 99.9616 20.9716C99.9616 26.696 97.5863 32.173 92.3839 35.6708C89.6937 37.4795 88.1965 41.0313 89.8286 43.8321L96.094 54.5839C98.0364 57.9172 95.6319 62.1013 91.774 62.1013H86.9254C85.1032 62.1013 83.4254 61.11 82.5461 59.5141L72.1155 40.5819C71.7279 39.8784 70.9884 39.4415 70.1852 39.4415V39.4415C68.9681 39.4415 67.9814 40.4282 67.9814 41.6454V57.1013C67.9814 59.8627 65.7428 62.1013 62.9814 62.1013H58.3594C55.598 62.1013 53.3594 59.8627 53.3594 57.1013V7.07422Z" fill="url(#paint1_linear_30_24)"/>
<path d="M140.909 2.07422C143.671 2.07422 145.909 4.31279 145.909 7.07422V8.78891C145.909 11.5503 143.671 13.7889 140.909 13.7889H128.762C126.001 13.7889 123.762 16.0275 123.762 18.7889V20.9311C123.762 23.6926 126.001 25.9311 128.762 25.9311H138.344C141.105 25.9311 143.344 28.1697 143.344 30.9311V32.2183C143.344 34.9797 141.105 37.2183 138.344 37.2183H128.762C126.001 37.2183 123.762 39.4568 123.762 42.2183V45.3866C123.762 48.148 126.001 50.3866 128.762 50.3866H140.909C143.671 50.3866 145.909 52.6252 145.909 55.3866V57.1013C145.909 59.8627 143.671 62.1013 140.909 62.1013H114.14C111.379 62.1013 109.14 59.8627 109.14 57.1013V7.07422C109.14 4.31279 111.379 2.07422 114.14 2.07422H140.909Z" fill="url(#paint2_linear_30_24)"/>
<path d="M176.574 32.9652C178.079 37.5483 184.56 37.5538 186.073 32.9733L195.142 5.50652C195.818 3.45794 197.732 2.07422 199.89 2.07422H204.673C208.126 2.07422 210.54 5.49128 209.386 8.74569L191.641 58.7728C190.933 60.768 189.046 62.1013 186.929 62.1013H175.693C173.576 62.1013 171.689 60.768 170.981 58.7728L153.236 8.74569C152.082 5.49128 154.496 2.07422 157.949 2.07422H162.812C164.972 2.07422 166.888 3.4619 167.562 5.51461L176.574 32.9652Z" fill="url(#paint3_linear_30_24)"/>
<path d="M222.863 62.1013C220.102 62.1013 217.863 59.8627 217.863 57.1013V7.07422C217.863 4.31279 220.102 2.07422 222.863 2.07422H227.485C230.247 2.07422 232.485 4.3128 232.485 7.07422V57.1013C232.485 59.8627 230.247 62.1013 227.485 62.1013H222.863Z" fill="url(#paint4_linear_30_24)"/>
<path d="M282.159 7.07421C282.159 4.31279 284.398 2.07422 287.159 2.07422H291.781C294.543 2.07422 296.781 4.3128 296.781 7.07422V57.1013C296.781 59.8627 294.543 62.1013 291.781 62.1013H284.849C283.169 62.1013 281.602 61.2582 280.677 59.857L266.876 38.9624C264.143 34.8253 257.704 36.76 257.704 41.7181V57.1013C257.704 59.8627 255.465 62.1013 252.704 62.1013H248.082C245.32 62.1013 243.082 59.8627 243.082 57.1013V7.07422C243.082 4.31279 245.32 2.07422 248.082 2.07422H255.007C256.69 2.07422 258.26 2.92101 259.185 4.32737L272.981 25.3111C275.708 29.4586 282.159 27.5278 282.159 22.5642V7.07421Z" fill="url(#paint5_linear_30_24)"/>
<path d="M351.924 62.1013C349.781 62.1013 347.876 60.7353 347.189 58.7053L345.898 54.8942C345.21 52.8642 343.305 51.4982 341.162 51.4982H325.93C323.786 51.4982 321.882 52.8642 321.194 54.8942L319.903 58.7053C319.216 60.7353 317.311 62.1013 315.167 62.1013H310.573C307.107 62.1013 304.692 58.6597 305.871 55.4001L323.972 5.37303C324.689 3.39318 326.569 2.07422 328.674 2.07422H338.589C340.694 2.07422 342.574 3.39318 343.29 5.37304L361.391 55.4001C362.571 58.6597 360.156 62.1013 356.69 62.1013H351.924ZM334.014 40.2111C337.436 40.2111 339.847 36.8497 338.75 33.6078L338.309 32.3065C336.773 27.7691 330.352 27.7803 328.832 32.3231L328.396 33.6244C327.312 36.8631 329.723 40.2111 333.138 40.2111H334.014Z" fill="url(#paint6_linear_30_24)"/>
<path d="M448.141 45.8024C448.141 41.527 445.148 39.0473 440.274 39.0473H430.671C430.119 39.0473 429.671 39.495 429.671 40.0473V51.3011C429.671 51.8534 430.119 52.3011 430.671 52.3011H440.445C445.319 52.3011 448.141 50.0779 448.141 45.8024ZM446.687 22.1165C446.687 18.0121 444.036 15.7889 439.248 15.7889H430.671C430.119 15.7889 429.671 16.2366 429.671 16.7889V27.3587C429.671 27.911 430.119 28.3587 430.671 28.3587H439.248C444.036 28.3587 446.687 26.221 446.687 22.1165ZM462.934 47.7691C462.934 57.6881 455.665 64.1013 443.01 64.1013H416.049C415.497 64.1013 415.049 63.6536 415.049 63.1013V5.07422C415.049 4.52193 415.497 4.07422 416.049 4.07422H442.07C454.297 4.07422 461.566 10.1453 461.566 19.6368C461.566 25.2785 458.938 29.3746 455.043 31.7252C454.152 32.2629 454.221 34.169 455.145 34.6495C459.977 37.1644 462.934 42.2436 462.934 47.7691Z" fill="#0BE2C9"/>
<path d="M496.376 46.5081C496.677 47.4247 497.973 47.4258 498.276 46.5097L512.061 4.76068C512.196 4.35096 512.579 4.07422 513.01 4.07422H526.349C527.039 4.07422 527.522 4.75763 527.291 5.40851L506.709 63.4356C506.568 63.8346 506.19 64.1013 505.767 64.1013H488.88C488.457 64.1013 488.08 63.8346 487.938 63.4356L467.356 5.40851C467.125 4.75763 467.608 4.07422 468.298 4.07422H481.721C482.153 4.07422 482.536 4.35175 482.671 4.7623L496.376 46.5081Z" fill="#0BE2C9"/>
<path d="M371.474 0.0424805L371.643 61.4384C371.654 65.1183 374.645 68.0933 378.325 68.0832L387.101 68.059L386.932 6.66304C386.922 2.9831 383.931 0.00814277 380.251 0.0182869L371.474 0.0424805Z" fill="#0C244F"/>
<path d="M345.366 41.2322L406.757 40.3975C410.436 40.3475 413.379 37.3241 413.329 33.6444L413.209 24.8686L351.819 25.7033C348.139 25.7533 345.197 28.7768 345.247 32.4564L345.366 41.2322Z" fill="#0C244F"/>
<defs>
<linearGradient id="paint0_linear_30_24" x1="316.002" y1="42.6013" x2="396.502" y2="81.1013" gradientUnits="userSpaceOnUse">
<stop stop-color="#E40B45"/>
<stop offset="1" stop-color="#FF376C"/>
</linearGradient>
<linearGradient id="paint1_linear_30_24" x1="316.002" y1="42.6013" x2="396.502" y2="81.1013" gradientUnits="userSpaceOnUse">
<stop stop-color="#E40B45"/>
<stop offset="1" stop-color="#FF376C"/>
</linearGradient>
<linearGradient id="paint2_linear_30_24" x1="316.002" y1="42.6013" x2="396.502" y2="81.1013" gradientUnits="userSpaceOnUse">
<stop stop-color="#E40B45"/>
<stop offset="1" stop-color="#FF376C"/>
</linearGradient>
<linearGradient id="paint3_linear_30_24" x1="316.002" y1="42.6013" x2="396.502" y2="81.1013" gradientUnits="userSpaceOnUse">
<stop stop-color="#E40B45"/>
<stop offset="1" stop-color="#FF376C"/>
</linearGradient>
<linearGradient id="paint4_linear_30_24" x1="316.002" y1="42.6013" x2="396.502" y2="81.1013" gradientUnits="userSpaceOnUse">
<stop stop-color="#E40B45"/>
<stop offset="1" stop-color="#FF376C"/>
</linearGradient>
<linearGradient id="paint5_linear_30_24" x1="316.002" y1="42.6013" x2="396.502" y2="81.1013" gradientUnits="userSpaceOnUse">
<stop stop-color="#E40B45"/>
<stop offset="1" stop-color="#FF376C"/>
</linearGradient>
<linearGradient id="paint6_linear_30_24" x1="316.002" y1="42.6013" x2="396.502" y2="81.1013" gradientUnits="userSpaceOnUse">
<stop stop-color="#E40B45"/>
<stop offset="1" stop-color="#FF376C"/>
</linearGradient>
</defs>
</svg>
